<?xml version="1.0" standalone="no"?>
<!DOCTYPE svg PUBLIC "-//W3C//DTD SVG 20010904//EN"
 "http://www.w3.org/TR/2001/REC-SVG-20010904/DTD/svg10.dtd">
<svg version="1.0" xmlns="http://www.w3.org/2000/svg"
 width="736.000000pt" height="736.000000pt" viewBox="0 0 736.000000 736.000000"
 preserveAspectRatio="xMidYMid meet">

<g transform="translate(0.000000,736.000000) scale(0.100000,-0.100000)"
fill="#000000" stroke="none">
<path d="M1092 7313 c-94 -212 -126 -302 -167 -478 -104 -441 -104 -733 0
-1054 24 -75 26 -86 16 -153 -22 -148 -33 -340 -35 -588 l-2 -255 -33 -105
c-36 -115 -57 -162 -106 -230 -36 -50 -65 -104 -65 -120 0 -36 79 34 162 143
33 43 62 76 64 74 2 -2 13 -60 24 -128 25 -157 34 -199 73 -333 l31 -109 -18
-104 c-10 -58 -16 -106 -14 -109 3 -2 20 16 38 41 19 25 35 45 36 45 2 0 22
-38 46 -85 23 -46 44 -82 46 -80 3 2 -10 49 -28 105 -38 119 -49 92 112 280
62 73 132 156 155 185 44 55 79 75 128 75 61 0 75 -1 75 -8 1 -12 28 -241 49
-402 39 -305 38 -347 -13 -680 -38 -243 -43 -268 -65 -298 -15 -21 -18 -33
-10 -38 16 -10 147 129 208 222 28 43 51 70 51 60 0 -26 18 -10 25 24 4 17 11
30 16 30 14 0 10 -21 -12 -70 -12 -25 -25 -61 -29 -80 -4 -19 -17 -58 -28 -87
-15 -37 -17 -51 -8 -47 7 3 35 53 61 112 26 59 49 108 50 110 2 2 28 -29 58
-70 30 -40 73 -91 96 -113 48 -45 50 -63 16 -95 -14 -13 -25 -28 -25 -35 0 -6
-13 -25 -30 -43 -16 -18 -30 -43 -30 -55 0 -12 -27 -60 -60 -107 -32 -47 -87
-125 -122 -175 -68 -97 -196 -249 -302 -358 -36 -37 -66 -72 -66 -77 0 -6 8
-18 18 -27 113 -107 153 -143 189 -166 101 -65 142 -187 193 -574 37 -285 44
-303 144 -391 42 -37 40 -48 -15 -62 -128 -32 -360 -143 -426 -203 -49 -45
-59 -76 -38 -117 13 -25 104 -100 186 -152 15 -9 41 -30 58 -46 32 -29 32 -29
19 -77 -12 -45 -20 -53 -128 -132 -63 -47 -119 -89 -125 -94 -5 -5 421 -9
1000 -9 l1010 0 -40 24 c-22 14 -71 43 -110 65 -83 48 -141 98 -137 117 2 9
-3 12 -13 8 -8 -3 -15 -2 -15 4 0 6 6 13 12 15 8 3 7 6 -4 6 -18 1 -26 44 -20
116 3 32 10 45 33 60 16 11 29 28 29 38 0 29 19 57 39 57 11 0 22 7 25 16 5
13 1 15 -21 11 -16 -4 -22 -4 -15 -1 20 9 13 43 -13 60 -14 9 -25 21 -24 28 0
7 2 6 6 -1 2 -7 10 -13 16 -13 6 0 19 -7 29 -17 17 -15 18 -15 18 4 0 13 8 23
21 26 18 5 20 12 18 56 -4 68 25 101 88 101 24 0 43 4 43 10 0 5 12 -2 26 -15
15 -14 30 -25 34 -25 4 0 19 -11 35 -24 15 -13 47 -33 70 -45 24 -12 45 -27
47 -33 3 -7 10 -8 17 -3 16 9 101 13 95 3 -8 -13 17 -19 49 -12 28 6 30 8 12
15 -17 7 -16 8 7 6 27 -3 52 -17 30 -17 -7 0 -12 -4 -12 -9 0 -5 20 -11 44
-12 32 -3 42 -1 39 9 -3 6 -17 13 -32 13 -18 1 -20 3 -8 6 13 3 16 10 11 21
-4 10 -9 31 -11 47 -3 23 -2 27 6 15 6 -8 11 -23 11 -32 0 -10 4 -18 8 -18 15
0 55 -97 47 -111 -5 -8 -4 -11 0 -6 10 8 39 -48 85 -163 41 -100 84 -176 98
-173 20 5 54 -75 47 -107 -7 -34 4 -120 15 -120 17 0 2 174 -19 228 -21 52
-21 53 -1 42 11 -6 20 -7 20 -2 0 17 -22 77 -40 112 -10 19 -28 60 -40 90 -12
30 -36 87 -54 125 -18 39 -37 81 -41 95 -4 14 -11 27 -14 30 -12 9 -60 130
-49 124 6 -4 8 -1 6 7 -3 8 -11 13 -17 11 -6 -1 -11 2 -11 8 0 5 6 10 13 10
16 0 47 -55 47 -83 0 -18 2 -19 10 -7 8 13 10 12 10 -3 0 -10 10 -39 23 -65
13 -26 22 -56 20 -67 -3 -16 -2 -17 6 -5 7 9 11 10 11 3 0 -6 13 -40 29 -75
16 -35 43 -98 60 -140 58 -146 105 -212 126 -178 5 9 -103 242 -182 395 -11
21 -12 26 -2 18 16 -15 49 -17 49 -3 0 6 -4 10 -10 10 -5 0 -21 18 -35 40 -35
56 -76 150 -64 150 5 0 9 -7 9 -15 0 -25 25 -17 48 15 l23 30 174 0 c120 0
175 3 175 11 0 6 -8 13 -19 16 -12 3 -17 11 -14 23 3 10 1 20 -4 23 -5 3 -58
-4 -118 -15 -67 -12 -128 -17 -156 -14 -27 4 -73 0 -110 -8 -68 -16 -75 -14
-81 23 -5 39 -28 38 -29 -1 0 -18 -3 -27 -6 -19 -4 10 -10 5 -20 -15 -7 -16
-11 -21 -8 -11 2 9 0 17 -5 17 -6 0 -10 7 -10 15 0 8 -4 15 -10 15 -5 0 -10
-5 -10 -12 0 -9 -3 -9 -12 0 -9 9 -8 16 5 30 9 10 17 26 17 35 0 18 0 18 -102
-5 -33 -8 -51 -8 -60 -1 -7 6 -38 16 -68 24 -30 7 -57 16 -60 20 -12 14 -74
29 -80 19 -4 -7 -15 -7 -30 -2 -22 8 -21 10 19 23 24 8 43 17 42 22 -1 7 21
31 51 55 14 11 31 10 105 -8 48 -12 93 -26 98 -30 6 -4 33 -12 60 -19 137 -33
140 -35 110 -65 -8 -8 -15 -22 -15 -31 0 -13 4 -14 21 -4 12 6 24 20 26 30 4
12 10 16 17 11 12 -9 168 -18 286 -16 340 5 339 5 415 -15 85 -24 99 -25 90
-11 -9 15 28 12 135 -11 97 -20 292 -39 620 -58 373 -23 360 -22 360 -40 0 -9
-5 -22 -11 -28 -8 -8 -8 -13 0 -17 7 -5 11 -58 11 -151 0 -165 20 -698 26
-704 14 -14 15 33 5 261 -6 139 -11 330 -12 423 l-2 170 54 -3 c30 -2 140 -14
244 -28 201 -25 265 -29 265 -16 0 5 -62 16 -137 25 l-138 16 180 -4 c99 -2
226 -9 283 -16 119 -14 136 -11 358 56 78 24 160 48 183 55 l41 11 0 437 -1
437 -27 -31 c-15 -17 -75 -89 -134 -160 -112 -136 -194 -215 -498 -484 -102
-90 -197 -174 -211 -187 l-26 -24 -184 11 c-238 14 -658 48 -729 60 -30 5
-104 12 -165 15 -157 8 -209 18 -416 81 -101 31 -220 67 -264 80 -43 14 -82
28 -85 33 -3 5 -21 12 -40 16 -38 8 -93 34 -73 35 7 0 32 -6 55 -14 64 -21
220 -68 239 -71 9 -2 47 -12 85 -24 131 -38 514 -129 504 -118 -5 4 -127 39
-425 119 -82 22 -166 46 -185 53 -19 7 -73 24 -120 38 -100 29 -346 114 -374
129 -14 7 -15 12 -6 18 8 5 0 11 -22 19 -30 10 -31 9 -14 -4 24 -18 7 -20 -29
-3 -19 8 -22 14 -13 20 8 6 1 7 -19 3 -28 -6 -31 -4 -26 14 5 20 -12 31 -19
12 -3 -11 -58 -3 -58 8 0 4 14 6 30 3 23 -3 30 0 30 12 0 9 5 16 10 16 6 0 10
5 10 11 0 33 46 47 96 29 18 -7 30 -7 40 0 9 8 19 8 32 1 43 -23 248 -86 266
-82 13 3 116 -18 147 -30 22 -9 164 -50 219 -63 8 -2 40 -11 70 -21 183 -56
254 -82 332 -121 94 -49 188 -69 188 -42 0 11 -23 20 -79 32 -44 10 -110 32
-148 50 -72 34 -191 77 -333 120 -47 14 -132 39 -188 56 -57 17 -102 33 -100
35 2 3 26 -2 53 -11 79 -23 37 3 -56 36 -46 16 -78 30 -70 30 24 0 -7 28 -40
35 -16 4 -35 12 -42 19 -13 12 -51 31 -129 62 -27 11 -48 22 -48 27 0 4 -11 7
-25 7 -14 0 -25 4 -25 10 0 5 -11 12 -25 16 -31 8 -32 17 -2 37 l22 16 -22 0
c-20 1 -23 6 -23 41 0 29 4 40 15 40 11 0 15 11 15 40 0 38 2 40 30 40 28 0
30 2 30 39 0 29 4 40 19 44 13 3 20 16 22 45 4 32 1 39 -11 34 -9 -3 -8 1 4
10 11 9 28 13 38 10 14 -3 17 0 12 14 -5 16 -4 16 5 4 8 -11 6 -18 -7 -29 -16
-13 -15 -13 3 -6 11 4 31 7 44 6 17 -1 22 3 17 15 -4 11 3 8 23 -8 17 -13 30
-29 30 -35 1 -7 5 -13 11 -13 5 0 12 -10 15 -23 4 -13 14 -23 25 -23 17 0 17
3 5 33 -10 24 -11 33 -2 37 7 3 5 4 -5 3 -15 -2 -98 78 -98 96 0 10 18 9 25
-3 13 -21 20 -8 20 37 0 29 6 54 17 69 10 12 18 27 18 32 0 6 4 12 10 14 5 2
11 27 12 56 1 30 6 56 11 59 5 3 1 14 -9 24 -10 11 -12 19 -6 19 8 0 12 26 12
80 0 64 -3 80 -15 80 -11 0 -15 11 -15 40 0 29 4 40 15 40 11 0 15 12 15 50 0
28 5 50 10 50 6 0 10 -22 10 -50 0 -44 2 -50 21 -50 20 0 21 4 18 88 -3 65 0
93 10 105 19 24 31 21 31 -8 0 -16 6 -25 15 -25 11 0 15 11 15 40 0 29 -4 40
-15 40 -8 0 -15 7 -15 15 0 8 4 15 10 15 17 0 48 41 43 59 -2 10 3 23 11 30
14 12 16 10 16 -13 0 -19 5 -26 20 -26 18 0 20 7 20 80 0 61 3 80 14 80 7 0
34 16 59 35 25 19 56 35 69 35 13 0 29 4 37 9 18 12 54 -20 71 -64 8 -19 17
-35 22 -35 4 0 8 -6 8 -13 0 -15 37 -53 44 -46 3 2 -9 42 -25 89 -16 47 -27
94 -24 105 3 11 2 13 -2 5 -4 -9 -13 5 -24 40 -23 68 -24 95 -2 55 14 -24 18
-27 21 -12 2 10 -2 24 -8 32 -11 13 -5 14 36 10 27 -3 83 -15 124 -26 41 -12
98 -20 127 -19 29 0 54 -4 58 -10 11 -18 75 49 71 74 -2 12 -1 15 1 9 7 -19
17 -16 48 17 16 17 39 30 51 30 14 0 25 8 29 20 3 11 14 24 24 29 14 8 30 -2
82 -57 52 -54 71 -68 99 -70 19 -2 30 1 25 5 -6 4 -42 44 -80 88 -37 44 -80
86 -94 93 -14 7 -26 12 -26 10 0 -1 -10 4 -22 13 -13 9 -20 19 -16 22 3 4 1 7
-7 7 -10 0 -10 3 0 15 12 14 15 14 31 -2 43 -43 48 -45 65 -29 19 20 22 20 40
2 10 -10 11 -17 3 -21 -6 -4 -8 -13 -5 -20 2 -7 -1 -18 -7 -24 -7 -7 -7 -11
-2 -10 17 4 45 -13 45 -27 0 -8 7 -14 15 -14 9 0 26 -11 39 -25 13 -14 28 -25
35 -25 6 0 11 -4 11 -10 0 -5 7 -10 15 -10 17 0 19 -11 5 -28 -7 -9 -7 -9 2
-2 19 16 26 13 69 -32 25 -27 43 -38 46 -31 3 9 11 8 29 -4 14 -9 23 -22 20
-29 -3 -8 0 -11 10 -7 17 6 134 -47 134 -60 0 -5 5 -5 12 -1 6 4 8 3 5 -3 -5
-7 14 -13 51 -18 31 -3 68 -13 82 -21 14 -9 17 -13 8 -10 -9 3 -50 12 -91 20
-93 20 -108 25 -130 51 -10 11 -15 14 -11 6 6 -11 3 -13 -12 -6 -10 4 -33 9
-51 10 -35 2 -63 20 -63 40 0 7 -7 15 -15 19 -24 9 -18 -30 6 -48 12 -8 18
-19 15 -24 -3 -5 0 -9 7 -8 6 0 44 -14 82 -33 107 -53 136 -61 265 -80 26 -4
44 -12 43 -18 -2 -8 6 -9 30 -2 17 5 73 11 122 13 102 3 148 13 138 29 -4 7 0
8 11 4 10 -4 23 -7 29 -8 7 0 2 -4 -10 -9 -37 -15 -28 -33 11 -27 19 3 37 1
40 -4 2 -5 3 -4 2 3 -3 13 14 26 69 52 17 8 50 30 75 50 44 35 67 46 55 26
-12 -19 5 -10 35 20 17 17 39 30 49 30 26 0 33 11 19 29 -10 13 -9 13 7 -1 13
-11 26 -14 34 -9 10 7 8 10 -8 16 -13 4 -20 9 -18 12 3 2 20 -3 37 -12 43 -22
71 -10 97 44 18 37 19 39 2 31 -23 -13 -39 -13 -19 0 8 5 11 12 7 16 -4 4 -13
2 -19 -4 -7 -7 -17 -12 -22 -12 -6 0 7 12 29 27 22 14 43 31 47 36 3 6 17 11
30 13 12 1 26 3 29 3 11 2 19 30 12 46 -6 17 -59 14 -109 -5 -24 -9 -24 -9 -8
15 9 14 20 23 24 20 5 -3 6 3 3 13 -2 11 6 31 20 48 13 16 30 39 36 52 8 14
18 21 27 18 12 -5 14 244 14 1809 l0 1815 -3004 0 -3003 0 -48 -97 c-191 -394
-264 -642 -236 -810 11 -64 9 -78 -23 -218 -19 -82 -46 -217 -60 -300 -15 -82
-28 -157 -30 -165 -4 -24 -53 196 -67 297 -24 188 4 498 67 738 25 97 85 289
94 300 4 6 13 28 20 49 7 22 28 73 46 113 39 86 40 93 16 93 -12 0 -26 -16
-40 -47z m242 -105 c-53 -122 -125 -332 -173 -508 -57 -207 -62 -219 -55 -140
10 117 67 326 85 314 5 -3 6 2 3 11 -4 8 1 26 10 40 9 13 16 31 16 39 0 23
134 326 144 326 3 0 -11 -37 -30 -82z m-229 -1238 c-15 -118 -31 -300 -36
-405 -5 -104 -13 -208 -18 -230 -9 -39 -9 -39 -10 20 -1 84 17 381 28 462 5
37 20 145 33 238 12 94 24 161 26 150 1 -12 -9 -117 -23 -235z m4480 -270 c19
-38 33 -70 31 -70 -6 0 -76 124 -76 133 0 19 13 0 45 -63z m135 -308 c0 -4 -9
7 -20 23 -11 17 -20 35 -20 40 0 6 9 -5 20 -23 11 -18 20 -36 20 -40z m-4741
-242 c1 -102 -12 -200 -25 -187 -2 2 -1 82 3 178 7 190 20 195 22 9z m4811
130 c0 -5 -2 -10 -4 -10 -3 0 -8 5 -11 10 -3 6 -1 10 4 10 6 0 11 -4 11 -10z
m47 -91 c-12 -8 1 -31 14 -24 5 4 9 2 9 -4 0 -5 -4 -12 -9 -16 -10 -6 -33 28
-29 42 1 4 -4 19 -11 33 l-13 25 24 -25 c14 -14 21 -28 15 -31z m47 -65 c3 -9
2 -23 -4 -32 -8 -14 -10 -14 -11 -2 -1 8 -1 18 0 23 0 4 -4 7 -10 7 -5 0 -7 5
-4 10 9 15 22 12 29 -6z m-4669 -206 c-14 -95 -46 -283 -70 -418 -24 -135 -49
-280 -56 -323 -6 -43 -15 -80 -19 -82 -12 -8 -70 287 -95 481 -6 49 -4 55 43
131 27 43 61 102 75 130 15 28 32 57 40 64 7 8 32 56 57 107 24 50 45 90 48
88 2 -3 -8 -82 -23 -178z m4700 152 c9 -16 12 -30 8 -30 -4 0 0 -6 9 -12 22
-18 35 -62 17 -56 -8 3 -14 10 -14 17 0 6 -4 15 -10 19 -5 4 -17 16 -25 26
-12 16 -12 18 -1 11 11 -6 13 -4 8 8 -4 10 -10 24 -13 32 -11 27 5 16 21 -15z
m445 -45 c24 -33 73 -96 108 -140 35 -44 69 -87 75 -95 7 -8 46 -55 87 -105
41 -49 82 -98 90 -109 8 -10 32 -37 52 -60 41 -45 47 -60 21 -52 -10 2 -31 7
-48 11 -18 3 -38 18 -52 38 -12 18 -41 59 -64 92 -23 33 -99 143 -167 245 -69
102 -129 187 -133 190 -4 3 -13 19 -19 35 -13 36 -7 29 50 -50z m-380 -85 c0
-11 -4 -20 -10 -20 -5 0 -10 6 -10 14 0 8 -6 17 -12 19 -7 3 -3 6 10 6 16 1
22 -5 22 -19z m433 -91 c103 -154 131 -193 143 -207 7 -6 16 -21 19 -32 3 -11
11 -20 16 -20 5 0 9 -5 9 -10 0 -6 9 -20 20 -32 25 -27 26 -43 3 -33 -10 4
-55 20 -101 35 -45 15 -85 29 -88 33 -3 3 -9 20 -14 39 -24 97 -71 286 -76
308 -7 33 -5 30 69 -81z m-403 49 c0 -5 -7 -8 -15 -8 -17 0 -18 2 -9 25 5 13
8 14 15 3 5 -7 9 -16 9 -20z m29 -42 c21 -33 28 -76 14 -76 -5 0 -20 22 -36
49 -20 36 -24 51 -15 54 7 3 14 6 15 6 1 1 11 -14 22 -33z m-245 -71 c3 -8 1
-15 -4 -15 -6 0 -10 7 -10 15 0 8 2 15 4 15 2 0 6 -7 10 -15z m316 -68 c0 -5
-6 -7 -12 -5 -7 3 -13 13 -13 24 0 10 -6 18 -12 17 -14 -3 -16 7 -7 31 5 12
11 7 25 -21 10 -21 19 -41 19 -46z m-215 33 c13 -6 15 -9 5 -9 -8 0 -22 4 -30
9 -18 12 -2 12 25 0z m105 -30 c8 -5 11 -10 5 -10 -5 0 -17 5 -25 10 -8 5 -10
10 -5 10 6 0 17 -5 25 -10z m230 -192 c0 -6 -6 -5 -15 2 -8 7 -15 14 -15 16 0
2 7 1 15 -2 8 -4 15 -11 15 -16z m-502 5 c-10 -2 -26 -2 -35 0 -10 3 -2 5 17
5 19 0 27 -2 18 -5z m132 3 c0 -2 3 -11 6 -19 8 -21 -19 -27 -41 -10 -19 15
-19 15 3 10 12 -3 22 -1 22 3 0 5 -21 11 -47 13 l-48 3 53 2 c28 1 52 0 52 -2z
m145 -5 c-6 -4 -32 -5 -60 -1 l-50 7 60 2 c34 0 55 -3 50 -8z m68 -8 c-7 -2
-19 -2 -25 0 -7 3 -2 5 12 5 14 0 19 -2 13 -5z m105 -31 c6 -9 12 -26 12 -38
0 -13 5 -26 10 -29 6 -3 10 -11 10 -18 0 -8 -3 -8 -12 1 -8 8 -15 9 -25 1 -23
-20 -14 -29 28 -29 30 0 46 -6 59 -22 10 -13 21 -20 25 -17 3 4 -5 19 -19 34
-14 14 -22 33 -19 41 3 9 -2 14 -16 14 -14 0 -21 6 -21 18 0 10 -5 23 -12 30
-9 9 -9 12 0 12 7 0 12 -4 12 -9 0 -4 12 -22 28 -38 68 -77 82 -94 82 -108 0
-7 5 -17 12 -21 7 -4 8 -3 4 4 -12 20 10 13 30 -9 l19 -22 -45 6 c-25 4 -106
12 -181 19 l-137 12 -16 30 c-9 17 -27 49 -41 71 -13 22 -24 45 -24 50 0 6 7
-1 15 -15 15 -24 15 -24 10 -2 -4 19 -2 21 10 11 8 -6 14 -17 14 -23 0 -7 6
-20 13 -30 12 -16 16 -17 35 -5 19 12 23 11 36 -6 15 -20 15 -20 10 0 -5 18
-1 20 44 17 l48 -4 -4 36 c-3 22 -8 33 -15 29 -6 -3 -7 -1 -3 5 5 8 -1 12 -18
12 -14 0 -28 5 -32 11 -11 18 59 0 74 -19z m292 -3 c0 -5 5 -7 12 -3 7 5 8 3
3 -6 -6 -10 -4 -12 8 -7 21 8 78 -3 72 -13 -3 -5 1 -11 7 -14 20 -8 -42 5 -81
18 -33 10 -55 36 -32 36 6 0 11 -5 11 -11z m-590 -7 c0 -13 -12 -22 -22 -16
-10 6 -1 24 13 24 5 0 9 -4 9 -8z m-233 -34 c-3 -7 -5 -2 -5 12 0 14 2 19 5
13 2 -7 2 -19 0 -25z m263 -30 c0 -5 -4 -8 -10 -8 -5 0 -10 10 -10 23 0 18 2
19 10 7 5 -8 10 -18 10 -22z m720 21 c0 -5 5 -7 10 -4 6 4 16 2 23 -3 7 -5 23
-12 37 -16 16 -4 55 -46 112 -121 l88 -115 -90 0 c-50 0 -90 -4 -90 -9 0 -14
-72 10 -96 31 -11 10 -33 18 -50 19 -28 0 -28 1 -6 10 30 11 20 27 -22 34 -29
6 -34 13 -49 58 -23 71 -31 120 -17 112 6 -4 44 -17 84 -29 61 -19 74 -20 85
-9 11 12 8 16 -18 26 -33 12 -41 27 -16 27 8 0 15 -5 15 -11z m213 -38 c14 -5
35 -25 48 -43 13 -18 26 -35 30 -38 6 -5 108 -152 122 -176 10 -17 -71 0 -86
18 -46 57 -157 207 -157 212 0 4 9 2 19 -4 11 -5 26 -10 33 -10 7 1 -8 12 -34
26 -27 13 -48 27 -48 30 0 7 35 -1 73 -15z m-5292 -44 c-10 -9 -11 -8 -5 6 3
10 9 15 12 12 3 -3 0 -11 -7 -18z m4119 3 c0 -5 -2 -10 -4 -10 -3 0 -8 5 -11
10 -3 6 -1 10 4 10 6 0 11 -4 11 -10z m304 -12 c16 -15 17 -18 4 -18 -9 0 -18
7 -22 15 -3 8 -12 12 -21 9 -8 -3 -15 -2 -15 3 0 16 33 11 54 -9z m-57 -14
c-3 -3 -12 -4 -19 -1 -8 3 -5 6 6 6 11 1 17 -2 13 -5z m408 -74 c-3 -5 -12
-10 -18 -10 -7 0 -6 4 3 10 19 12 23 12 15 0z m88 -27 c-7 -2 -21 -2 -30 0
-10 3 -4 5 12 5 17 0 24 -2 18 -5z m335 -130 c-10 -2 -26 -2 -35 0 -10 3 -2 5
17 5 19 0 27 -2 18 -5z m-893 -103 c72 -11 136 -20 144 -20 8 0 12 -3 9 -6 -7
-6 -242 23 -284 36 -47 14 -7 11 131 -10z m73 -41 c40 -5 79 -9 85 -9 7 0 6
-4 -3 -10 -12 -7 -8 -11 18 -16 20 -4 60 -31 103 -70 98 -87 207 -150 299
-170 113 -24 222 -22 295 6 33 13 81 24 106 24 29 1 45 5 42 12 -2 6 32 47 77
92 44 45 80 86 80 92 0 6 29 10 74 10 61 0 77 -3 88 -18 7 -11 24 -24 36 -31
24 -13 24 -13 5 -34 -11 -12 -24 -33 -30 -47 -6 -14 -50 -68 -97 -120 -48 -52
-91 -100 -97 -107 -5 -7 -31 -19 -59 -27 -27 -8 -78 -28 -112 -45 -119 -57
-209 -76 -343 -74 -251 3 -428 52 -555 153 -162 127 -275 203 -254 169 3 -5
-4 -9 -15 -9 -25 0 -41 28 -41 74 0 34 -7 41 -40 38 -3 0 -6 11 -5 26 0 15 5
26 10 25 6 0 17 3 27 8 11 6 18 4 22 -8 6 -14 8 -14 26 2 14 13 17 21 9 26 -7
4 -3 10 12 14 23 8 23 8 4 17 -13 5 3 6 43 3 34 -3 90 -7 125 -10 43 -4 56 -2
42 4 -11 5 -42 10 -70 10 -27 1 -57 6 -65 11 -15 10 2 9 158 -11z m-258 -7 c0
-4 -9 -13 -20 -20 -19 -12 -20 -11 -8 8 13 20 28 27 28 12z m-100 -91 c0 -5
-7 -12 -16 -15 -14 -5 -15 -4 -4 9 14 17 20 19 20 6z m170 -172 c0 -5 -8 -9
-18 -9 -10 0 -19 6 -19 14 0 8 8 11 19 8 10 -2 18 -8 18 -13z m105 -78 c3 -5
2 -12 -3 -15 -5 -3 -9 1 -9 9 0 17 3 19 12 6z m-188 -7 c-3 -3 -12 -4 -19 -1
-8 3 -5 6 6 6 11 1 17 -2 13 -5z m1693 -48 c0 -2 -8 -10 -17 -17 -16 -13 -17
-12 -4 4 13 16 21 21 21 13z m-86 -28 c-3 -5 -12 -7 -20 -4 -18 7 -44 -3 -44
-16 0 -6 7 -5 15 2 9 7 18 11 20 8 3 -2 -8 -14 -24 -25 l-28 -21 5 26 c3 15 8
32 13 38 10 13 71 6 63 -8z m-134 8 c0 -2 -8 -10 -17 -17 -16 -13 -17 -12 -4
4 13 16 21 21 21 13z m-1015 -114 c-4 -5 -103 46 -109 56 -3 5 21 -5 54 -22
32 -17 57 -32 55 -34z m-90 -20 c-3 -3 -11 0 -18 7 -9 10 -8 11 6 5 10 -3 15
-9 12 -12z m883 -2 c-36 -19 -148 -50 -178 -49 -8 0 21 11 65 24 44 13 91 28
105 34 42 17 47 11 8 -9z m87 -20 c-16 -11 -37 -20 -45 -21 -11 0 -12 -2 -2
-6 13 -5 -141 -92 -163 -92 -5 0 2 7 18 15 31 17 36 26 10 18 -16 -5 -16 -4 0
6 10 6 25 9 34 6 11 -5 14 -2 9 10 -4 12 -2 15 9 11 8 -4 27 0 42 8 15 8 24
15 18 15 -12 1 76 48 90 49 6 1 -3 -8 -20 -19z m35 -70 c0 -5 -5 -10 -11 -10
-5 0 -7 5 -4 10 3 6 8 10 11 10 2 0 4 -4 4 -10z m-900 -26 c0 -2 -9 0 -20 6
-11 6 -20 13 -20 16 0 2 9 0 20 -6 11 -6 20 -13 20 -16z m561 17 c-8 -5 -20
-7 -28 -4 -21 8 -15 13 15 13 20 0 23 -3 13 -9z m-47 -10 c7 -11 -141 -25
-199 -19 -36 4 -35 5 15 7 45 2 141 13 172 20 4 0 9 -3 12 -8z m109 -38 c-7
-2 -21 -2 -30 0 -10 3 -4 5 12 5 17 0 24 -2 18 -5z m-78 -13 c-27 -12 -35 -12
-35 0 0 6 12 10 28 9 24 0 25 -1 7 -9z m-238 -6 c-3 -3 -12 -4 -19 -1 -8 3 -5
6 6 6 11 1 17 -2 13 -5z m135 -10 c-12 -8 -30 -14 -40 -11 -14 3 -12 6 8 15
39 17 58 15 32 -4z m287 12 c-10 -9 -69 -36 -69 -32 0 7 52 35 64 36 5 0 7 -2
5 -4z m-361 -13 c-10 -2 -26 -2 -35 0 -10 3 -2 5 17 5 19 0 27 -2 18 -5z
m-1888 -778 c0 -8 -4 -15 -10 -15 -5 0 -10 7 -10 15 0 8 5 15 10 15 6 0 10 -7
10 -15z m-56 -179 c-3 -9 -10 -16 -15 -16 -4 0 -6 -6 -3 -14 3 -8 0 -17 -7
-22 -9 -5 -10 -2 -6 9 3 10 2 17 -3 17 -6 0 0 11 12 25 23 27 32 28 22 1z
m-44 -68 c0 -4 -6 -8 -14 -8 -8 0 -17 4 -20 8 -2 4 4 8 15 8 10 0 19 -4 19 -8z
m-135 -68 c3 -5 2 -10 -4 -10 -5 0 -13 5 -16 10 -3 6 -2 10 4 10 5 0 13 -4 16
-10z m-10 -30 c3 -5 -1 -10 -9 -10 -9 0 -16 5 -16 10 0 6 4 10 9 10 6 0 13 -4
16 -10z m-140 -436 c-9 -9 -19 -13 -23 -10 -3 4 0 11 8 16 24 15 33 11 15 -6z
m195 -69 c19 -7 28 -13 20 -13 -8 0 -31 6 -50 13 -19 7 -28 13 -20 13 8 0 31
-6 50 -13z m-177 -15 c7 0 7 -4 -2 -9 -16 -10 -41 -4 -41 11 0 6 7 7 16 4 9
-3 21 -6 27 -6z m244 -6 c-3 -3 -12 -4 -19 -1 -8 3 -5 6 6 6 11 1 17 -2 13 -5z
m-200 -20 c-3 -3 -12 -4 -19 -1 -8 3 -5 6 6 6 11 1 17 -2 13 -5z m320 -20 c-3
-3 -12 -4 -19 -1 -8 3 -5 6 6 6 11 1 17 -2 13 -5z m-597 -24 c-12 -8 -12 -10
-1 -10 8 0 12 -2 9 -5 -3 -3 -13 -2 -22 1 -14 5 -15 9 -4 15 7 5 18 9 23 9 6
0 3 -5 -5 -10z m47 -6 c-3 -3 -12 -4 -19 -1 -8 3 -5 6 6 6 11 1 17 -2 13 -5z
m63 -4 c-20 -13 -40 -13 -40 0 0 6 12 10 28 10 21 0 24 -2 12 -10z m-53 -26
c-3 -3 -12 -4 -19 -1 -8 3 -5 6 6 6 11 1 17 -2 13 -5z m73 -128 c0 -2 -9 -6
-20 -9 -11 -3 -18 -1 -14 4 5 9 34 13 34 5z m114 -29 c3 3 13 2 23 -2 17 -7
17 -8 -2 -16 -15 -7 -12 -8 11 -3 19 3 48 -2 70 -11 22 -9 86 -32 144 -51 58
-20 112 -38 120 -41 8 -4 17 -7 20 -8 3 -1 12 -5 20 -8 28 -11 285 -89 355
-107 77 -20 56 -25 -45 -10 -36 5 -128 16 -204 25 -129 15 -149 20 -270 72
-72 30 -148 61 -168 69 -20 7 -67 28 -105 45 -52 25 -63 34 -48 39 14 5 15 9
6 14 -7 5 -18 3 -24 -3 -6 -6 -17 -11 -25 -11 -9 0 -6 7 9 19 22 18 24 18 65
1 23 -10 45 -16 48 -13z m120 2 c50 -17 97 -33 105 -35 8 -3 11 -7 8 -10 -5
-5 -205 62 -216 72 -10 9 18 2 103 -27z m-242 -104 c23 -15 43 -22 54 -18 11
4 15 3 11 -4 -7 -11 37 -28 62 -24 8 1 17 -2 20 -7 3 -5 24 -14 46 -20 22 -6
72 -20 110 -31 l70 -20 -75 6 c-47 3 -95 15 -130 30 -87 39 -113 50 -138 58
-13 4 -33 16 -44 27 -11 11 -26 17 -34 14 -9 -3 -12 -1 -9 4 9 15 16 13 57
-15z m1326 -242 c-10 -2 -26 -2 -35 0 -10 3 -2 5 17 5 19 0 27 -2 18 -5z
m-1488 -73 c0 -5 -2 -10 -4 -10 -3 0 -8 5 -11 10 -3 6 -1 10 4 10 6 0 11 -4
11 -10z m2196 -7 c8 -3 14 -12 14 -20 0 -13 -11 -14 -72 -8 -84 8 -89 10 -81
31 5 13 16 15 65 10 33 -4 66 -10 74 -13z m-2260 -50 c-7 -7 -26 7 -26 19 0 6
6 6 15 -2 9 -7 13 -15 11 -17z m41 -85 c-3 -8 -6 -5 -6 6 -1 11 2 17 5 13 3
-3 4 -12 1 -19z m-590 -95 c-2 -16 -4 -3 -4 27 0 30 2 43 4 28 2 -16 2 -40 0
-55z m592 19 c1 -7 -3 -10 -9 -7 -5 3 -10 21 -9 38 1 31 1 31 9 7 4 -14 8 -31
9 -38z m-669 -188 c0 -8 -5 -12 -10 -9 -6 4 -8 11 -5 16 9 14 15 11 15 -7z
m934 -216 c2 -10 0 -18 -4 -18 -7 0 -14 14 -38 75 -2 6 6 -1 17 -15 11 -14 22
-33 25 -42z m-1036 28 c-7 -8 -15 -12 -17 -11 -5 6 10 25 20 25 5 0 4 -6 -3
-14z"/>
<path d="M6020 4386 c0 -2 8 -10 18 -17 15 -13 16 -12 3 4 -13 16 -21 21 -21
13z"/>
<path d="M6500 4406 c0 -2 9 -6 20 -9 11 -3 18 -1 14 4 -5 9 -34 13 -34 5z"/>
<path d="M5953 3933 c9 -2 23 -2 30 0 6 3 -1 5 -18 5 -16 0 -22 -2 -12 -5z"/>
<path d="M5596 3865 c7 -17 30 -20 38 -6 3 5 -1 12 -10 15 -25 10 -34 7 -28
-9z"/>
<path d="M4230 1291 c0 -10 19 -25 25 -20 1 2 -3 10 -11 17 -8 7 -14 8 -14 3z"/>
<path d="M5680 3551 c0 -6 4 -13 10 -16 6 -3 7 1 4 9 -7 18 -14 21 -14 7z"/>
<path d="M7255 3480 c-3 -5 -1 -10 4 -10 6 0 11 5 11 10 0 6 -2 10 -4 10 -3 0
-8 -4 -11 -10z"/>
<path d="M7323 3415 c0 -22 2 -30 4 -17 2 12 2 30 0 40 -3 9 -5 -1 -4 -23z"/>
<path d="M5120 3418 c0 -19 2 -20 10 -8 13 19 13 30 0 30 -5 0 -10 -10 -10
-22z"/>
<path d="M7292 3415 c0 -16 2 -22 5 -12 2 9 2 23 0 30 -3 6 -5 -1 -5 -18z"/>
<path d="M7344 3373 c-3 -16 -12 -48 -20 -73 -7 -25 -22 -76 -32 -115 -27
-101 -102 -294 -158 -409 -38 -78 -66 -117 -128 -183 -78 -82 -138 -159 -185
-236 -42 -68 -16 -48 46 36 69 93 103 128 103 107 0 -8 16 1 38 21 20 19 108
82 194 139 l158 105 0 318 c0 174 -2 317 -5 317 -2 0 -7 -12 -11 -27z"/>
<path d="M7301 3333 c0 -25 1 -26 9 -8 12 27 12 35 0 35 -5 0 -10 -12 -9 -27z"/>
<path d="M6940 3240 c-8 -5 -12 -12 -9 -15 4 -3 12 1 19 10 14 17 11 19 -10 5z"/>
<path d="M5045 3229 c-4 -6 -5 -12 -2 -15 2 -3 7 2 10 11 7 17 1 20 -8 4z"/>
<path d="M6888 3213 c-10 -2 -18 -9 -18 -14 0 -6 10 -5 23 2 37 20 36 23 -5
12z"/>
<path d="M6615 3160 l-30 -8 30 0 c17 0 39 3 50 8 l20 9 -20 -1 c-11 0 -33 -4
-50 -8z"/>
<path d="M4631 2404 c0 -11 3 -14 6 -6 3 7 2 16 -1 19 -3 4 -6 -2 -5 -13z"/>
<path d="M4621 2354 c0 -11 3 -14 6 -6 3 7 2 16 -1 19 -3 4 -6 -2 -5 -13z"/>
<path d="M4810 2151 c-17 -5 -25 -14 -26 -31 -2 -26 16 -46 26 -30 12 20 179
32 213 16 12 -6 17 -4 17 8 0 12 -11 16 -42 17 -24 1 -50 2 -58 3 -8 2 -23 3
-33 4 -10 1 -15 7 -12 12 7 11 -46 12 -85 1z m65 -11 c-3 -5 -16 -10 -28 -9
-21 0 -21 1 -2 9 28 12 37 12 30 0z"/>
<path d="M4575 2120 c3 -5 10 -10 16 -10 5 0 9 5 9 10 0 6 -7 10 -16 10 -8 0
-12 -4 -9 -10z"/>
<path d="M4478 2063 c5 -25 17 -30 29 -10 14 22 11 32 -11 32 -18 0 -21 -5
-18 -22z"/>
<path d="M4565 2019 c-4 -6 -5 -12 -2 -15 2 -3 7 2 10 11 7 17 1 20 -8 4z"/>
<path d="M4198 1523 c6 -2 18 -2 25 0 6 3 1 5 -13 5 -14 0 -19 -2 -12 -5z"/>
<path d="M4400 1490 c0 -5 5 -10 11 -10 5 0 7 5 4 10 -3 6 -8 10 -11 10 -2 0
-4 -4 -4 -10z"/>
<path d="M4828 1443 c7 -3 16 -2 19 1 4 3 -2 6 -13 5 -11 0 -14 -3 -6 -6z"/>
<path d="M1760 1350 c0 -43 14 -90 26 -90 20 0 17 40 -6 75 -11 17 -20 23 -20
15z"/>
<path d="M3691 1146 c-10 -11 -8 -16 9 -21 12 -4 24 -4 27 -1 4 3 -1 6 -10 6
-9 0 -17 5 -17 10 0 14 33 13 48 -2 8 -8 12 -8 12 -1 0 24 -52 30 -69 9z"/>
<path d="M5908 889 c-12 -13 -13 -19 -4 -22 14 -5 36 -453 36 -714 0 -126 3
-153 14 -153 12 0 14 16 11 88 -3 48 -7 166 -10 262 -3 96 -9 242 -15 325 -5
82 -7 158 -4 168 3 10 15 22 27 27 19 8 20 9 3 9 -10 1 -24 7 -30 15 -9 11
-14 10 -28 -5z"/>
<path d="M4601 879 c-124 -9 -156 -18 -134 -40 15 -15 79 -17 76 -2 -4 18 110
27 352 26 199 -1 271 -6 475 -37 19 -3 10 1 -20 9 -151 40 -515 62 -749 44z"/>
<path d="M5418 813 c7 -3 16 -2 19 1 4 3 -2 6 -13 5 -11 0 -14 -3 -6 -6z"/>
<path d="M5390 762 c0 -4 22 -20 48 -36 56 -34 122 -44 189 -26 27 7 85 11
131 11 45 -1 82 2 82 7 0 8 -139 25 -195 24 -22 0 -185 16 -227 23 -16 2 -28
1 -28 -3z m169 -38 c10 -9 -66 -3 -79 6 -10 7 -1 8 30 4 25 -4 47 -8 49 -10z"/>
<path d="M3781 622 c43 -31 77 -45 96 -37 16 6 15 8 -7 17 -14 6 -39 17 -57
24 -44 19 -60 17 -32 -4z"/>
<path d="M6626 601 c20 -18 203 -33 462 -38 240 -5 272 -4 272 10 0 13 -32 16
-232 20 -128 3 -295 7 -372 10 -76 3 -135 2 -130 -2z"/>
<path d="M3318 483 c7 -3 16 -2 19 1 4 3 -2 6 -13 5 -11 0 -14 -3 -6 -6z"/>
<path d="M3464 232 c3 -5 47 -35 98 -67 51 -31 112 -70 136 -86 23 -16 45 -29
48 -29 3 0 21 -12 39 -26 22 -17 43 -24 62 -22 25 3 21 7 -47 46 -41 24 -129
76 -195 117 -109 68 -155 89 -141 67z"/>
<path d="M4222 160 c0 -14 2 -19 5 -12 2 6 2 18 0 25 -3 6 -5 1 -5 -13z"/>
</g>
</svg>
